HIERARCHY
ROOT Hips
{
	OFFSET 0.00000 0.00000 0.00000
	CHANNELS 6 Xposition Yposition Zposition Zrotation Yrotation Xrotation 
	JOINT LHipJoint
	{
		OFFSET 0 0 0
		CHANNELS 3 Zrotation Yrotation Xrotation
		JOINT LeftUpLeg
		{
			OFFSET 1.48831 -1.59570 0.95625
			CHANNELS 3 Zrotation Yrotation Xrotation
			JOINT LeftLeg
			{
				OFFSET 2.20856 -6.06797 0.00000
				CHANNELS 3 Zrotation Yrotation Xrotation
				JOINT LeftFoot
				{
					OFFSET 2.62924 -7.22379 0.00000
					CHANNELS 3 Zrotation Yrotation Xrotation
					JOINT LeftToeBase
					{
						OFFSET 0.16802 -0.46163 2.41673
						CHANNELS 3 Zrotation Yrotation Xrotation
						End Site
						{
							OFFSET 0.00000 -0.00000 1.23760
						}
					}
				}
			}
		}
	}
	JOINT RHipJoint
	{
		OFFSET 0 0 0
		CHANNELS 3 Zrotation Yrotation Xrotation
		JOINT RightUpLeg
		{
			OFFSET -1.56796 -1.59570 0.95625
			CHANNELS 3 Zrotation Yrotation Xrotation
			JOINT RightLeg
			{
				OFFSET -2.29239 -6.29829 0.00000
				CHANNELS 3 Zrotation Yrotation Xrotation
				JOINT RightFoot
				{
					OFFSET -2.66963 -7.33475 0.00000
					CHANNELS 3 Zrotation Yrotation Xrotation
					JOINT RightToeBase
					{
						OFFSET -0.18185 -0.49964 2.34359
						CHANNELS 3 Zrotation Yrotation Xrotation
						End Site
						{
							OFFSET -0.00000 -0.00000 1.20477
						}
					}
				}
			}
		}
	}
	JOINT LowerBack
	{
		OFFSET 0 0 0
		CHANNELS 3 Zrotation Yrotation Xrotation
		JOINT Spine
		{
			OFFSET 0.03505 2.15832 -0.34324
			CHANNELS 3 Zrotation Yrotation Xrotation
			JOINT Spine1
			{
				OFFSET -0.01089 2.17963 0.04689
				CHANNELS 3 Zrotation Yrotation Xrotation
				JOINT Neck
				{
					OFFSET 0 0 0
					CHANNELS 3 Zrotation Yrotation Xrotation
					JOINT Neck1
					{
						OFFSET 0.04686 1.69404 0.22159
						CHANNELS 3 Zrotation Yrotation Xrotation
						JOINT Head
						{
							OFFSET 0.00265 1.69305 -0.01513
							CHANNELS 3 Zrotation Yrotation Xrotation
							End Site
							{
								OFFSET -0.00415 1.80215 -0.03034
							}
						}
					}
				}
				JOINT LeftShoulder
				{
					OFFSET 0 0 0
					CHANNELS 3 Zrotation Yrotation Xrotation
					JOINT LeftArm
					{
						OFFSET 3.67184 1.11724 -0.19002
						CHANNELS 3 Zrotation Yrotation Xrotation
						JOINT LeftForeArm
						{
							OFFSET 5.17714 -0.00000 -0.00000
							CHANNELS 3 Zrotation Yrotation Xrotation
							JOINT LeftHand
							{
								OFFSET 3.43679 -0.00000 -0.00000
								CHANNELS 3 Zrotation Yrotation Xrotation
								JOINT LeftFingerBase
								{
									OFFSET 0 0 0
									CHANNELS 3 Zrotation Yrotation Xrotation
									JOINT LeftHandIndex1
									{
										OFFSET 0.57312 -0.00000 -0.00000
										CHANNELS 3 Zrotation Yrotation Xrotation
										End Site
										{
											OFFSET 0.46206 -0.00000 -0.00000
										}
									}
								}
								JOINT LThumb
								{
									OFFSET 0 0 0
									CHANNELS 3 Zrotation Yrotation Xrotation
									End Site
									{
										OFFSET 0.46912 -0.00000 0.46912
									}
								}
							}
						}
					}
				}
				JOINT RightShoulder
				{
					OFFSET 0 0 0
					CHANNELS 3 Zrotation Yrotation Xrotation
					JOINT RightArm
					{
						OFFSET -3.59596 0.95831 -0.26050
						CHANNELS 3 Zrotation Yrotation Xrotation
						JOINT RightForeArm
						{
							OFFSET -5.23908 -0.00000 -0.00000
							CHANNELS 3 Zrotation Yrotation Xrotation
							JOINT RightHand
							{
								OFFSET -3.46485 -0.00000 -0.00000
								CHANNELS 3 Zrotation Yrotation Xrotation
								JOINT RightFingerBase
								{
									OFFSET 0 0 0
									CHANNELS 3 Zrotation Yrotation Xrotation
									JOINT RightHandIndex1
									{
										OFFSET -0.60875 -0.00000 -0.00000
										CHANNELS 3 Zrotation Yrotation Xrotation
										End Site
										{
											OFFSET -0.49079 -0.00000 -0.00000
										}
									}
								}
								JOINT RThumb
								{
									OFFSET 0 0 0
									CHANNELS 3 Zrotation Yrotation Xrotation
									End Site
									{
										OFFSET -0.49829 -0.00000 0.49829
									}
								}
							}
						}
					}
				}
			}
		}
	}
}
MOTION
Frames: 6
Frame Time: .0083333
49.4371 15.997 15.4312 0 0 0 0 0 0 -21 0 0 0 0 0 0 0 0 0 0 0 0 0 0 21 0 0 0 0 0 0 0 0 0 0 0 0 0 0 0 0 0 0 0 0 0 0 -16 0 0 21 0 0 11 0 0 0 -8 0 0 0 0 0 0 0 0 0 0 0 0 0 0 0 0 0 0 0 0 8 0 0 0 0 0 0 0 0 0 0 0 0 0 0 0 0 0
49.4371 15.9970 15.4312 -174.0660 -43.5811 -178.1080 0.0000 0.0000 0.0000 -14.7595 2.9819 -15.6261 2.5646 9.9544 28.8292 1.3578 -2.2018 -21.4193 0.0908 -1.9430 -5.3482 0.0000 0.0000 0.0000 27.6326 5.2167 -16.8297 -3.6535 -11.6845 34.6248 -2.2543 -2.3591 -29.3014 -0.2504 -3.2198 8.8912 5.9652 0.5796 -8.9283 0.5427 0.0579 0.9984 -2.7806 0.2083 6.0818 1.3214 -1.1515 -7.2255 2.3941 -1.9710 7.8928 0.4487 -0.8493 3.8762 -0.0000 -0.0000 0.0000 -87.5992 2.2267 23.4814 14.5285 -23.4851 -3.0355 -0.0000 0.0000 -17.7925 17.9213 12.9181 4.1352 -7.1250 0.0000 -0.0000 -8.5563 43.3686 0.3472 -0.0000 -0.0000 0.0000 91.7082 0.2166 15.7064 -13.8600 22.5341 -2.7742 0.0000 0.0000 7.6284 -18.0509 -8.9051 2.8881 7.1250 -0.0000 -0.0000 7.6979 -39.2270 1.1027
49.4579 15.9504 15.4386 -190.3970 -42.8902 -170.1060 0.0000 0.0000 0.0000 -28.0095 5.3237 -8.0920 1.3497 7.3549 20.7711 0.9470 -0.5296 -18.2257 0.1097 -2.1356 -5.8805 0.0000 0.0000 0.0000 14.3661 3.9583 -16.6125 -4.7825 -13.1346 39.8744 -2.6468 0.2421 -30.7721 -0.2653 -3.3137 9.1534 -6.3348 -0.0275 -5.2269 -2.6608 0.4348 1.7988 0.8229 0.0236 4.7846 1.3592 -1.1706 -7.2586 2.4245 -2.0062 7.9211 0.4500 -0.8639 3.8931 0.0000 0.0000 0.0000 -87.6053 2.1565 23.3690 14.4710 -23.4041 -3.0127 -0.0000 0.0000 -17.5858 17.8371 12.9000 4.1089 -7.1250 0.0000 -0.0000 -8.6278 43.3409 0.3561 0.0000 0.0000 0.0000 91.7472 0.2251 15.6350 -13.8615 22.5364 -2.7748 0.0000 0.0000 7.6184 -17.9912 -8.8389 2.8567 7.1250 -0.0000 -0.0000 7.7386 -39.1537 1.1226
49.4547 15.9495 15.4379 -190.3820 -42.8879 -170.1410 0.0000 0.0000 0.0000 -28.0418 5.6263 -7.2174 1.1496 6.8080 19.1478 0.8614 -0.2572 -17.4595 0.1078 -2.1174 -5.8302 0.0000 0.0000 0.0000 14.3388 4.0514 -16.8843 -4.9411 -13.3172 40.5678 -2.7102 0.5169 -31.0607 -0.2651 -3.3122 9.1493 -6.3469 -0.0271 -5.2295 -2.6425 0.4370 1.8113 0.8488 0.0237 4.7989 1.3381 -1.1725 -7.2597 2.4201 -2.0060 7.9256 0.4523 -0.8645 3.8951 0.0000 0.0000 0.0000 -87.6433 2.1635 23.3310 14.4878 -23.4278 -3.0194 -0.0000 0.0000 -17.5640 17.8086 12.9336 4.1124 -7.1250 0.0000 -0.0000 -8.6606 43.3723 0.3507 0.0000 0.0000 0.0000 91.7215 0.2357 15.6569 -13.8553 22.5275 -2.7724 0.0000 0.0000 7.6073 -18.0221 -8.7657 2.8384 7.1250 -0.0000 -0.0000 7.7005 -39.0800 1.1310
49.4519 15.9563 15.4358 -189.1510 -42.9452 -170.7570 0.0000 0.0000 0.0000 -27.1549 6.0865 -5.8014 0.8109 5.7465 16.0506 0.7117 0.3440 -16.0695 0.1012 -2.0516 -5.6484 0.0000 0.0000 0.0000 15.3015 4.4786 -17.4797 -5.1869 -13.5912 41.6239 -2.8216 0.8141 -31.6176 -0.2716 -3.3520 9.2604 -5.4740 -0.0063 -5.5149 -2.3779 0.4315 1.7563 0.6388 0.0509 4.9043 1.3826 -1.1875 -7.2007 2.3237 -2.0192 7.9067 0.4120 -0.8745 3.8748 -0.0000 0.0000 0.0000 -87.6688 2.1449 23.3523 14.4618 -23.3910 -3.0090 -0.0000 0.0000 -17.5747 17.8204 12.8889 4.1014 -7.1250 0.0000 -0.0000 -8.6405 43.3277 0.3595 -0.0000 0.0000 0.0000 91.6812 0.2233 15.7436 -13.8621 22.5372 -2.7750 0.0000 0.0000 7.5854 -18.0258 -8.8089 2.8529 7.1250 -0.0000 -0.0000 7.7043 -39.1253 1.1230
49.4529 15.9498 15.4374 -190.2860 -42.8875 -170.2200 0.0000 0.0000 0.0000 -28.0356 6.1881 -5.5798 0.8109 5.7466 16.0509 0.7119 0.2957 -16.0545 0.1006 -2.0452 -5.6306 0.0000 0.0000 0.0000 14.3719 4.3032 -17.3274 -5.2022 -13.6079 41.6890 -2.8178 0.9134 -31.5677 -0.2729 -3.3601 9.2829 -6.3668 -0.0281 -5.2254 -2.5857 0.4367 1.8135 0.9190 0.0231 4.7984 1.3967 -1.1966 -7.1810 2.2919 -2.0291 7.9031 0.3985 -0.8805 3.8689 0.0000 -0.0000 0.0000 -87.6975 2.1473 23.3190 14.4699 -23.4025 -3.0122 -0.0000 0.0000 -17.5228 17.7978 12.8860 4.0949 -7.1250 0.0000 -0.0000 -8.6601 43.3222 0.3615 0.0000 -0.0000 0.0000 91.6620 0.2215 15.7827 -13.8648 22.5410 -2.7761 0.0000 0.0000 7.5692 -18.0245 -8.8035 2.8510 7.1250 -0.0000 -0.0000 7.7045 -39.1196 1.1241
